<?xml version="1.0" encoding="UTF-8"?>
<!DOCTYPE svg PUBLIC "-//W3C//DTD SVG 1.1//EN" "http://www.w3.org/Graphics/SVG/1.1/DTD/svg11.dtd">
<svg version="1.1" xmlns="http://www.w3.org/2000/svg" xmlns:xlink="http://www.w3.org/1999/xlink" x="0" y="0" width="309.402" height="158.417" viewBox="0, 0, 309.402, 158.417">
  <g id="layer3">
    <path d="M1.6,40.393 L1.6,96.393" fill-opacity="0" stroke="#000000" stroke-width="3.2" id="path4140"/>
    <g id="path4142">
      <path d="M57.6,0.392 L1.6,0.392 L1.6,32.392" fill="#000000"/>
      <path d="M57.6,0.392 L1.6,0.392 L1.6,32.392" fill-opacity="0" stroke="#000000" stroke-width="3.2"/>
    </g>
    <path d="M1.6,104.393 L1.6,152.394" fill-opacity="0" stroke="#000000" stroke-width="3.2" id="path4144"/>
    <g id="g10">
      <g id="path4146">
        <path d="M17.6,52.393 L41.6,68.393 L17.6,84.393" fill="#000000"/>
        <path d="M17.6,52.393 L41.6,68.393 L17.6,84.393" fill-opacity="0" stroke="#000000" stroke-width="3.2"/>
      </g>
      <g id="path4148">
        <path d="M41.6,152.394 L73.6,0.392 L89.6,0.392 L113.601,120.394" fill="#DB0A16"/>
        <path d="M41.6,152.394 L73.6,0.392 L89.6,0.392 L113.601,120.394" fill-opacity="0" stroke="#000000" stroke-width="3.2"/>
      </g>
      <g id="path4150">
        <path d="M105.601,-1.208 L129.601,118.793 L169.601,118.793 L169.601,62.793 L145.601,62.793 L118.669,62.803" fill="#D91222"/>
        <path d="M105.601,-1.208 L129.601,118.793 L169.601,118.793 L169.601,62.793 L145.601,62.793 L118.669,62.803" fill-opacity="0" stroke="#000000" stroke-width="3.2"/>
      </g>
    </g>
  </g>
  <g id="layer1">
    <g id="path4170">
      <path d="M308.618,72.053 L233.738,72.053 L233.738,0.392 L305.398,0.392 L233.738,72.053" fill="#FECE2F"/>
      <path d="M308.618,72.053 L233.738,72.053 L233.738,0.392 L305.398,0.392 L233.738,72.053" fill-opacity="0" stroke="#000000" stroke-width="3.2"/>
    </g>
  </g>
  <g id="layer2">
    <path d="M184.593,-1.26 L184.593,119.038 L308.618,119.038" fill-opacity="0" stroke="#000000" stroke-width="3.152" id="path4158"/>
    <text transform="matrix(1, 0, 0, 1, 232.061, 144.046)">
      <tspan x="-73.062" y="11.142" font-family="Osaka" font-size="32" fill="#000000">CONF '18</tspan>
    </text>
  </g>
</svg>
