<svg class="logo" width="278px" height="61px" viewBox="0 0 278 61" version="1.1" xmlns="http://www.w3.org/2000/svg" xmlns:xlink="http://www.w3.org/1999/xlink">
    <defs></defs>
    <g id="Page-1" stroke="none" stroke-width="1" fill="none" fill-rule="evenodd">
        <g id="Desktop-HD" transform="translate(-111.000000, -240.000000)" fill="#FF353D">
            <path d="M343.980807,282.413471 C342.223606,288.557409 337.225234,292.307441 330.464647,292.307441 C322.013286,292.307441 316.230315,286.347747 316.230315,277.362458 C316.230315,268.377169 322.013286,262.328487 330.464647,262.328487 C337.225234,262.328487 342.223606,266.153721 343.980807,272.308938 L353.082658,272.308938 C351.014625,261.479967 342.207313,254.233079 330.464647,254.233079 C316.943473,254.233079 307.335267,263.840031 307.335267,277.362458 C307.335267,290.97262 316.943473,300.491837 330.464647,300.491837 C342.296301,300.491837 351.028412,293.320151 353.085165,282.413471 L343.980807,282.413471 Z M242.122049,282.413471 C240.363594,288.557409 235.366475,292.307441 228.605888,292.307441 C220.154528,292.307441 214.372809,286.347747 214.372809,277.362458 C214.372809,268.377169 220.154528,262.328487 228.605888,262.328487 C235.367728,262.328487 240.364848,266.153721 242.122049,272.308938 L251.223899,272.308938 C249.15712,261.479967 240.348554,254.233079 228.605888,254.233079 C215.083461,254.233079 205.476509,263.840031 205.476509,277.362458 C205.476509,290.97262 215.083461,300.491837 228.605888,300.491837 C240.437542,300.491837 249.169654,293.320151 251.226406,282.413471 L242.122049,282.413471 Z M269.527869,284.656973 L269.527869,267.407074 L260.632822,266.413165 L260.632822,284.656973 C260.632822,294.53089 265.6149,299.601957 275.666793,299.601957 L283.404995,299.601957 L283.404995,291.41756 L276.288456,291.41756 C271.752571,291.41756 269.527869,289.192859 269.527869,284.656973 Z M260.632822,263.219621 L269.527869,263.220874 L269.527869,263.218367 L283.404995,263.218367 L283.404995,255.122959 L269.527869,255.122959 L269.527869,240 L260.632822,240 L260.632822,255.122959 L255.383779,255.122959 L255.383779,263.218367 L260.632822,263.218367 L260.632822,263.219621 Z M131.638967,251.697545 L131.638967,299.601957 L140.889966,299.601957 L140.889966,252.730308 L131.638967,251.697545 Z M131.638967,248.453867 L140.889966,248.45512 L140.889966,248.450107 L161.52768,248.450107 L161.52768,240 L111,240 L111,248.450107 L131.638967,248.450107 L131.638967,248.453867 Z M389,287.325362 C389,295.242794 382.86233,300.491837 374.234246,300.491837 C365.42568,300.491837 359.022299,294.797854 359.022299,286.257505 L367.9186,286.257505 C367.9186,290.528933 370.409012,292.840116 374.234246,292.840116 C377.702275,292.840116 380.104953,290.883632 380.104953,287.325362 C380.104953,277.450193 359.73295,283.856081 359.73295,266.954613 C359.73295,259.39188 365.693898,254.233079 373.789306,254.233079 C382.684353,254.233079 388.823277,259.836821 388.823277,268.377169 L379.926976,268.377169 C379.926976,264.195983 377.525552,261.883546 373.789306,261.883546 C370.229783,261.883546 367.9186,263.663308 367.9186,266.954613 C367.9186,276.82853 389,270.334907 389,287.325362 Z M290.966475,299.601957 L299.862776,299.601957 L299.862776,255.122959 L290.966475,255.122959 L290.966475,299.601957 Z M290.966475,248.896301 L299.862776,248.896301 L299.862776,240 L290.966475,240 L290.966475,248.896301 Z M189.106463,277.362458 C189.106463,268.377169 183.413733,262.328487 174.873384,262.328487 C166.423277,262.328487 160.640306,268.377169 160.640306,277.362458 C160.640306,286.347747 166.423277,292.307441 174.873384,292.307441 C183.413733,292.307441 189.106463,286.347747 189.106463,277.362458 Z M151.745258,277.362458 C151.745258,263.840031 161.35221,254.233079 174.873384,254.233079 C180.655102,254.233079 185.548193,256.278551 189.106463,259.927062 L189.106463,255.122959 L198.002764,255.122959 L198.002764,299.601957 L189.106463,299.601957 L189.106463,294.797854 C185.548193,298.445112 180.655102,300.491837 174.873384,300.491837 C161.35221,300.491837 151.745258,290.97262 151.745258,277.362458 Z" id="Fill-1"></path>
        </g>
    </g>
</svg>