<?xml version="1.0" encoding="UTF-8" standalone="no"?>
<!DOCTYPE svg PUBLIC "-//W3C//DTD SVG 1.1//EN" "http://www.w3.org/Graphics/SVG/1.1/DTD/svg11.dtd">
<svg width="100%" height="100%" viewBox="0 0 842 596" version="1.1" xmlns="http://www.w3.org/2000/svg" xmlns:xlink="http://www.w3.org/1999/xlink" xml:space="preserve" xmlns:serif="http://www.serif.com/" style="fill-rule:evenodd;clip-rule:evenodd;stroke-linejoin:round;stroke-miterlimit:1.41421;">
    <path id="XMLID_201_" d="M188.985,39.481C187.957,38.919 187.4,38.6 187.4,38.6C187.948,38.878 188.476,39.172 188.985,39.481C198.058,44.447 243.801,68.341 265.9,58.1C298.6,43 373.6,94 414.8,76.8C422.9,73.4 410.5,92 416.7,104.3C409.9,123.4 287.9,169.9 247.3,157.8C234.8,247.7 351.8,227.7 403.6,246.7L403.586,246.703C422.759,254.322 423.617,315.075 397.7,321.6C377.185,326.745 345.987,330.172 313.582,331.897C314.552,343.147 301.567,393.242 215.8,544.2C215.8,544.2 252.155,444.761 249.062,333.069C208.821,332.299 178.142,328.427 180.6,321.5C194.1,283.6 173.1,246.6 182.5,247.8C199.579,249.807 214.802,251.336 228.761,252.439C182.808,217.79 179.614,189.722 173.5,126.8C173.5,126.8 144,86.8 43.2,144.9C99.8,68.7 152.6,86.8 162.8,90.8C163.5,82.2 148.7,76.9 117.3,50.1C170.7,75.2 202.4,72.1 202.4,72.1C202.013,70.167 203.682,48.428 188.985,39.481Z" style="fill:none;stroke:rgb(18,144,248);stroke-width:4.48px;"/>
    <g id="XMLID_63_" transform="matrix(1.006,0,0,1,281.36,502.363)">
        <text x="0px" y="0px" style="font-family:'LemonMilk', 'Lemon/Milk', sans-serif;font-size:186.299px;fill:none;stroke:rgb(18,144,248);stroke-width:4.47px;">able</text>
    </g>
</svg>
